<mxfile host="app.diagrams.net" agent="Mozilla/5.0 (Macintosh; Intel Mac OS X 10_15_7) AppleWebKit/605.1.15 (KHTML, like Gecko) Version/18.3 Safari/605.1.15" version="26.1.0">
  <diagram name="Page-1" id="BVttv0GQJwShkcxvACY7">
    <mxGraphModel dx="862" dy="1131" grid="1" gridSize="10" guides="1" tooltips="1" connect="1" arrows="1" fold="1" page="1" pageScale="1" pageWidth="850" pageHeight="1100" math="0" shadow="0">
      <root>
        <mxCell id="0" />
        <mxCell id="1" parent="0" />
        <mxCell id="jL4r_CbHmDYsDycfs6Xd-9" style="edgeStyle=orthogonalEdgeStyle;rounded=0;orthogonalLoop=1;jettySize=auto;html=1;" edge="1" parent="1" source="jL4r_CbHmDYsDycfs6Xd-2" target="jL4r_CbHmDYsDycfs6Xd-4">
          <mxGeometry relative="1" as="geometry" />
        </mxCell>
        <mxCell id="jL4r_CbHmDYsDycfs6Xd-2" value="inicio" style="ellipse;whiteSpace=wrap;html=1;aspect=fixed;" vertex="1" parent="1">
          <mxGeometry x="385" y="20" width="80" height="80" as="geometry" />
        </mxCell>
        <mxCell id="jL4r_CbHmDYsDycfs6Xd-10" style="edgeStyle=orthogonalEdgeStyle;rounded=0;orthogonalLoop=1;jettySize=auto;html=1;" edge="1" parent="1" source="jL4r_CbHmDYsDycfs6Xd-4" target="jL4r_CbHmDYsDycfs6Xd-5">
          <mxGeometry relative="1" as="geometry" />
        </mxCell>
        <mxCell id="jL4r_CbHmDYsDycfs6Xd-4" value="Introduzca el valor menor" style="shape=parallelogram;perimeter=parallelogramPerimeter;whiteSpace=wrap;html=1;fixedSize=1;" vertex="1" parent="1">
          <mxGeometry x="365" y="140" width="120" height="60" as="geometry" />
        </mxCell>
        <mxCell id="jL4r_CbHmDYsDycfs6Xd-11" style="edgeStyle=orthogonalEdgeStyle;rounded=0;orthogonalLoop=1;jettySize=auto;html=1;" edge="1" parent="1" source="jL4r_CbHmDYsDycfs6Xd-5" target="jL4r_CbHmDYsDycfs6Xd-6">
          <mxGeometry relative="1" as="geometry" />
        </mxCell>
        <mxCell id="jL4r_CbHmDYsDycfs6Xd-5" value="men" style="shape=parallelogram;perimeter=parallelogramPerimeter;whiteSpace=wrap;html=1;fixedSize=1;" vertex="1" parent="1">
          <mxGeometry x="365" y="240" width="120" height="60" as="geometry" />
        </mxCell>
        <mxCell id="jL4r_CbHmDYsDycfs6Xd-12" style="edgeStyle=orthogonalEdgeStyle;rounded=0;orthogonalLoop=1;jettySize=auto;html=1;" edge="1" parent="1" source="jL4r_CbHmDYsDycfs6Xd-6" target="jL4r_CbHmDYsDycfs6Xd-7">
          <mxGeometry relative="1" as="geometry" />
        </mxCell>
        <mxCell id="jL4r_CbHmDYsDycfs6Xd-6" value="Introduzca el valor mayor" style="shape=parallelogram;perimeter=parallelogramPerimeter;whiteSpace=wrap;html=1;fixedSize=1;" vertex="1" parent="1">
          <mxGeometry x="365" y="360" width="120" height="60" as="geometry" />
        </mxCell>
        <mxCell id="jL4r_CbHmDYsDycfs6Xd-13" style="edgeStyle=orthogonalEdgeStyle;rounded=0;orthogonalLoop=1;jettySize=auto;html=1;" edge="1" parent="1" source="jL4r_CbHmDYsDycfs6Xd-7" target="jL4r_CbHmDYsDycfs6Xd-8">
          <mxGeometry relative="1" as="geometry" />
        </mxCell>
        <mxCell id="jL4r_CbHmDYsDycfs6Xd-7" value="max" style="shape=parallelogram;perimeter=parallelogramPerimeter;whiteSpace=wrap;html=1;fixedSize=1;" vertex="1" parent="1">
          <mxGeometry x="360" y="460" width="120" height="60" as="geometry" />
        </mxCell>
        <mxCell id="jL4r_CbHmDYsDycfs6Xd-8" value="imprimir_lista(min, max)" style="shape=document;whiteSpace=wrap;html=1;boundedLbl=1;" vertex="1" parent="1">
          <mxGeometry x="360" y="560" width="120" height="80" as="geometry" />
        </mxCell>
        <mxCell id="jL4r_CbHmDYsDycfs6Xd-22" style="edgeStyle=orthogonalEdgeStyle;rounded=0;orthogonalLoop=1;jettySize=auto;html=1;" edge="1" parent="1" source="jL4r_CbHmDYsDycfs6Xd-15" target="jL4r_CbHmDYsDycfs6Xd-16">
          <mxGeometry relative="1" as="geometry" />
        </mxCell>
        <mxCell id="jL4r_CbHmDYsDycfs6Xd-15" value="imprimir_lista" style="shape=document;whiteSpace=wrap;html=1;boundedLbl=1;" vertex="1" parent="1">
          <mxGeometry x="360" y="700" width="120" height="80" as="geometry" />
        </mxCell>
        <mxCell id="jL4r_CbHmDYsDycfs6Xd-18" value="" style="edgeStyle=orthogonalEdgeStyle;rounded=0;orthogonalLoop=1;jettySize=auto;html=1;" edge="1" parent="1" source="jL4r_CbHmDYsDycfs6Xd-16" target="jL4r_CbHmDYsDycfs6Xd-17">
          <mxGeometry relative="1" as="geometry" />
        </mxCell>
        <mxCell id="jL4r_CbHmDYsDycfs6Xd-23" style="edgeStyle=orthogonalEdgeStyle;rounded=0;orthogonalLoop=1;jettySize=auto;html=1;" edge="1" parent="1" source="jL4r_CbHmDYsDycfs6Xd-16" target="jL4r_CbHmDYsDycfs6Xd-19">
          <mxGeometry relative="1" as="geometry" />
        </mxCell>
        <mxCell id="jL4r_CbHmDYsDycfs6Xd-16" value="min &amp;gt; max" style="rhombus;whiteSpace=wrap;html=1;" vertex="1" parent="1">
          <mxGeometry x="380" y="820" width="80" height="80" as="geometry" />
        </mxCell>
        <mxCell id="jL4r_CbHmDYsDycfs6Xd-17" value="fin" style="whiteSpace=wrap;html=1;" vertex="1" parent="1">
          <mxGeometry x="200" y="830" width="120" height="60" as="geometry" />
        </mxCell>
        <mxCell id="jL4r_CbHmDYsDycfs6Xd-24" style="edgeStyle=orthogonalEdgeStyle;rounded=0;orthogonalLoop=1;jettySize=auto;html=1;" edge="1" parent="1" source="jL4r_CbHmDYsDycfs6Xd-19" target="jL4r_CbHmDYsDycfs6Xd-20">
          <mxGeometry relative="1" as="geometry" />
        </mxCell>
        <mxCell id="jL4r_CbHmDYsDycfs6Xd-19" value="min" style="shape=parallelogram;perimeter=parallelogramPerimeter;whiteSpace=wrap;html=1;fixedSize=1;" vertex="1" parent="1">
          <mxGeometry x="360" y="920" width="120" height="60" as="geometry" />
        </mxCell>
        <mxCell id="jL4r_CbHmDYsDycfs6Xd-20" value="imprimir_lista(min+1, max)" style="shape=document;whiteSpace=wrap;html=1;boundedLbl=1;" vertex="1" parent="1">
          <mxGeometry x="360" y="1010" width="120" height="80" as="geometry" />
        </mxCell>
        <mxCell id="jL4r_CbHmDYsDycfs6Xd-25" value="True" style="text;html=1;align=center;verticalAlign=middle;whiteSpace=wrap;rounded=0;" vertex="1" parent="1">
          <mxGeometry x="330" y="830" width="60" height="30" as="geometry" />
        </mxCell>
        <mxCell id="jL4r_CbHmDYsDycfs6Xd-26" value="False" style="text;html=1;align=center;verticalAlign=middle;whiteSpace=wrap;rounded=0;" vertex="1" parent="1">
          <mxGeometry x="420" y="890" width="60" height="30" as="geometry" />
        </mxCell>
        <mxCell id="jL4r_CbHmDYsDycfs6Xd-27" value="" style="endArrow=classic;html=1;rounded=0;" edge="1" parent="1">
          <mxGeometry width="50" height="50" relative="1" as="geometry">
            <mxPoint x="465" y="200" as="sourcePoint" />
            <mxPoint x="510" y="200" as="targetPoint" />
          </mxGeometry>
        </mxCell>
        <mxCell id="jL4r_CbHmDYsDycfs6Xd-28" value="" style="endArrow=classic;html=1;rounded=0;" edge="1" parent="1">
          <mxGeometry width="50" height="50" relative="1" as="geometry">
            <mxPoint x="335" y="250" as="sourcePoint" />
            <mxPoint x="380" y="250" as="targetPoint" />
          </mxGeometry>
        </mxCell>
        <mxCell id="jL4r_CbHmDYsDycfs6Xd-29" value="" style="endArrow=classic;html=1;rounded=0;" edge="1" parent="1">
          <mxGeometry width="50" height="50" relative="1" as="geometry">
            <mxPoint x="465" y="410" as="sourcePoint" />
            <mxPoint x="510" y="410" as="targetPoint" />
          </mxGeometry>
        </mxCell>
        <mxCell id="jL4r_CbHmDYsDycfs6Xd-30" value="" style="endArrow=classic;html=1;rounded=0;" edge="1" parent="1">
          <mxGeometry width="50" height="50" relative="1" as="geometry">
            <mxPoint x="330" y="470" as="sourcePoint" />
            <mxPoint x="375" y="470" as="targetPoint" />
          </mxGeometry>
        </mxCell>
        <mxCell id="jL4r_CbHmDYsDycfs6Xd-31" value="" style="endArrow=classic;html=1;rounded=0;" edge="1" parent="1">
          <mxGeometry width="50" height="50" relative="1" as="geometry">
            <mxPoint x="465" y="960" as="sourcePoint" />
            <mxPoint x="510" y="960" as="targetPoint" />
          </mxGeometry>
        </mxCell>
      </root>
    </mxGraphModel>
  </diagram>
</mxfile>
